<svg width="432" height="418" viewBox="0 0 432 418" fill="none" xmlns="http://www.w3.org/2000/svg">
<path d="M219.25 243.563C219.25 243.563 217.977 225.452 216.194 217.434C209.205 222.809 204.706 226.239 196.793 229.473C187.916 233.097 178.545 233.673 168.419 233.308C168.419 243.847 167.803 257.232 168.184 267.479C178.347 267.363 188.365 265.057 197.556 260.718C206.425 256.535 216.964 250.041 219.25 243.563Z" stroke="#333333" stroke-width="3" stroke-linecap="round" stroke-linejoin="round"/>
<path d="M283.028 225.987C282.023 231.533 278.091 250.689 288.403 244.706C296.17 240.207 301.139 230.187 307.957 224.771C308.857 236.389 301.342 250.957 307.52 262.623C313.316 273.576 330.422 266.952 339.664 263.385C346.15 260.88 358.156 256.243 364.618 255.092" stroke="#333333" stroke-width="3" stroke-linecap="round" stroke-linejoin="round"/>
<path d="M297.702 202.112C297.702 202.112 307.812 177.426 313.916 165.347C319.713 153.851 328.566 137.823 336.154 126.611C329.79 121.366 305.736 107.552 299.672 102.931C321.188 93.7858 341.448 87.8271 362.242 85.3382C380.191 83.1899 408.777 83.6195 404.877 109.878C403.402 119.761 398.229 130.576 392.717 139.064C403.467 136.534 429.523 137.386 427.091 155.278C424.772 172.4 395.846 168.719 385.355 164.439C385.355 164.439 377.159 193.138 375.7 203.288C374.03 214.913 371.565 233.705 371.565 233.705" stroke="#333333" stroke-width="3" stroke-linecap="round" stroke-linejoin="round"/>
<path d="M350.049 140.993C352.433 143.344 359.081 143.774 362.21 142.614" stroke="#333333" stroke-width="3" stroke-linecap="round" stroke-linejoin="round"/>
<path d="M355.408 114.118C354.427 116.12 352.798 119.485 352.798 119.485" stroke="#333333" stroke-width="3" stroke-linecap="round" stroke-linejoin="round"/>
<path d="M366.458 117.58C365.469 119.582 363.847 122.946 363.847 122.946" stroke="#333333" stroke-width="3" stroke-linecap="round" stroke-linejoin="round"/>
<path d="M168.184 267.479C160.774 270.617 157.272 279.842 156.874 287.633C156.428 296.454 159.234 308.071 165.671 314.143C154.45 322.623 157.199 337.005 162.63 350.958C168.062 364.91 179.315 387.958 179.315 395.66" stroke="#333333" stroke-width="3" stroke-linecap="round" stroke-linejoin="round"/>
<path d="M219.25 243.563C230.551 240.321 234.216 257.151 238.707 271.776C243.198 286.401 252.335 305.072 261.991 321.464C274.8 343.191 297.662 384.699 330.738 384.634C350.909 384.634 353.535 372.547 349.287 366.134C345.039 359.721 333.26 364.796 339.915 372.409C346.571 380.021 363.823 365.794 369.028 349.636" stroke="#333333" stroke-width="3" stroke-linecap="round" stroke-linejoin="round"/>
<path d="M237.767 267.568C241.99 262.291 246.247 257.07 250.738 252.003C266.952 233.673 285.598 211.467 296.137 201.277C300.483 207.852 308.541 215.407 322.08 223.263C335.619 231.119 356.94 238.107 372.611 234.451C372.611 234.451 371.882 249.579 374.541 252.781C377.2 255.983 388.023 264.609 392.887 269.449C405.664 282.307 416.778 304.204 422.543 321.464C425.639 330.755 428.931 346.734 430.277 356.203" stroke="#333333" stroke-width="3" stroke-linecap="round" stroke-linejoin="round"/>
<path d="M16.8575 246.709C16.8575 246.709 12.2446 217.207 11.5636 210.284C26.9232 207.751 42.575 207.527 58.0008 209.619C60.2494 218.095 61.9393 226.71 63.0596 235.408C70.6316 236.454 78.9575 252.092 82.022 259.802C87.5267 273.649 91.9775 287.852 97.6767 301.699C105.387 320.41 115.853 344.464 137.774 345.956C145.269 346.448 152.773 345.145 159.663 342.153" stroke="#333333" stroke-width="3" stroke-linecap="round" stroke-linejoin="round"/>
<path d="M63.0596 235.408C47.9075 235.408 18.6005 241.788 11.5636 251.492C4.52671 261.196 12.6175 296.13 15.7712 307.65C21.7461 329.458 26.513 353.219 35.4713 373.876C40.7896 386.15 44.4702 407.042 54.0608 416.276" stroke="#333333" stroke-width="3" stroke-linecap="round" stroke-linejoin="round"/>
<path d="M32.9987 163.263C36.0064 152.586 47.3806 147.722 57.8468 141.52C63.5217 126.927 68.921 107.697 77.7009 109.902C86.4809 112.107 75.1472 150.251 69.7885 164.925C66.1241 174.97 60.8707 182.063 59.0223 191.978C57.6684 199.331 56.4199 209.773 56.4199 209.773" stroke="#333333" stroke-width="3" stroke-linecap="round" stroke-linejoin="round"/>
<path d="M170.973 231.808L169.116 211.484" stroke="#333333" stroke-width="3" stroke-linecap="round" stroke-linejoin="round"/>
<path d="M173.016 210.884C162.209 214.289 151.078 197.596 161.479 191.176" stroke="#333333" stroke-width="3" stroke-linecap="round" stroke-linejoin="round"/>
<path d="M35.1957 157.815C35.1957 157.815 24.5998 155.075 19.5977 151.329C12.3662 145.93 15.0415 135.269 15.7388 127.324C18.6735 93.8261 27.34 65.0704 40.295 34.4987C44.0486 25.6377 48.7912 14.3041 54.8148 6.93474C61.0004 -0.645353 69.5615 1.85163 78.7873 5.52412C88.0131 9.19662 98.0902 12.707 101.836 19.5007C104.908 25.0621 102.825 33.8907 96.9714 49.3671C91.6694 63.3355 84.292 81.7953 75.6093 109.813" stroke="#333333" stroke-width="3" stroke-linecap="round" stroke-linejoin="round"/>
<path d="M159.542 207.527C153.769 207.3 149.919 208.63 144.535 204.487C139.582 200.677 135.723 191.719 136.266 185.233C137.004 176.437 162.071 159.064 166.87 165.346" stroke="#333333" stroke-width="3" stroke-linecap="round" stroke-linejoin="round"/>
<path d="M12.4473 207.641C8.33702 189.189 11.5312 171.346 7.58307 153.462C4.07272 137.685 -1.04283 117.669 4.34025 102.266C7.22636 94.0127 13.258 91.7265 19.5248 96.3313" stroke="#333333" stroke-width="3" stroke-linecap="round" stroke-linejoin="round"/>
<path d="M137.653 180.588C134.937 168.079 135.277 161.82 146.019 154.718C152.245 150.6 166.335 143.255 172.675 144.99" stroke="#333333" stroke-width="3" stroke-linecap="round" stroke-linejoin="round"/>
<path d="M9.42341 93.7856C6.9913 91.1751 7.89118 81.779 9.94227 78.2363C12.569 73.672 21.4786 67.616 26.7968 71.1345" stroke="#333333" stroke-width="3" stroke-linecap="round" stroke-linejoin="round"/>
<path d="M138.407 158.95C135.285 146.36 139.566 139.631 151.078 135.44C160.993 131.84 174.588 127.511 184.122 132.075" stroke="#333333" stroke-width="3" stroke-linecap="round" stroke-linejoin="round"/>
<path d="M15.2118 73.4126C12.4959 64.0328 19.5085 52.4721 31.4259 53.8746" stroke="#333333" stroke-width="3" stroke-linecap="round" stroke-linejoin="round"/>
<path d="M134.791 189.173C125.922 183.255 121.746 159.582 135.966 158.699" stroke="#333333" stroke-width="3" stroke-linecap="round" stroke-linejoin="round"/>
<path d="M20.5625 55.966C20.5625 45.4917 30.1775 24.8512 40.8301 31.1422" stroke="#333333" stroke-width="3" stroke-linecap="round" stroke-linejoin="round"/>
<path d="M159.209 132.878C152.156 129.635 143.611 125.517 137.02 121.163C130.964 117.166 124.349 112.359 120.198 106.57C116.493 101.382 111.726 92.0992 118.463 87.0486C125.978 81.3736 133.542 88.9456 138.634 93.1937C146.287 99.582 155.521 104.163 164.309 109.238C172.521 113.988 182.849 118.431 191.702 123.222C208.727 132.448 223.085 137.645 221.301 160.061C219.826 178.545 210.762 198.026 213.097 219.485" stroke="#333333" stroke-width="3" stroke-linecap="round" stroke-linejoin="round"/>
<path d="M27.5103 143.044C31.1909 104.738 41.9084 75.034 54.0609 38.5441C56.3227 31.7504 62.7354 17.2469 68.3049 12.5205" stroke="#333333" stroke-width="3" stroke-linecap="round" stroke-linejoin="round"/>
<path d="M403.653 153.786C404.845 152.927 411.387 152.845 411.387 152.845" stroke="#333333" stroke-width="3" stroke-linecap="round" stroke-linejoin="round"/>
<path d="M382.413 174.856C382.864 175.053 383.351 175.154 383.844 175.154C384.336 175.154 384.823 175.053 385.274 174.856C389.309 173.046 392.941 170.45 395.96 167.219C392.335 166.677 388.78 165.744 385.356 164.438C385.356 164.438 384.058 168.849 382.413 174.856Z" fill="#333333"/>
<path d="M407.204 93.2585C406.483 92.6921 405.716 92.1877 404.91 91.7506C404.785 91.6837 404.654 91.6268 404.521 91.5803C404.902 83.5868 397.848 77.9686 390.52 76.4769C381.351 74.6041 370.868 78.0172 362.696 72.3261C360.653 70.9073 358.513 73.3962 359.389 75.3824C366.053 90.6156 382.007 96.1041 397.492 97.385C393.787 101.657 392.352 107.762 392.287 113.502C392.182 122.792 395.303 134.58 387.131 141.528C385.145 143.206 387.552 146.733 389.806 145.298C393.034 143.237 396.036 140.843 398.765 138.155C403.963 137.709 409.2 138.104 414.273 139.323C414.776 138.128 415.246 136.92 415.684 135.699C420.191 122.801 421.067 101.033 407.204 93.2585Z" fill="#333333"/>
</svg>
