<svg width="204" height="58" viewBox="0 0 204 58" fill="none" xmlns="http://www.w3.org/2000/svg">
<path d="M0 0.397534C0 0.851073 0.564159 4.61214 0.730088 5.28691C1.59292 8.73824 4.26991 11.7582 7.63274 13.0635C9.29204 13.7051 9.7677 13.7714 13.6615 13.8599C18.208 13.9595 18.927 14.1033 20.885 15.2869C22.6327 16.3378 23.9602 17.798 24.8451 19.6674C26.0177 22.1343 26.1062 25.132 25.0664 27.632C24.9226 27.9971 23.3518 31.382 21.5819 35.1542C19.8119 38.9263 18.3628 42.0458 18.3628 42.09C18.3628 42.1343 21.1173 42.1896 24.4801 42.2006L30.5863 42.2338L30.6195 49.7891C30.6305 54.0701 30.6858 57.3334 30.7412 57.3334C30.8186 57.3334 38.6394 51.9241 42.5885 49.1475C43.7721 48.3179 46.9137 46.1276 48.385 45.1099L49.9889 44.0037L50 32.4993C50 22.9418 49.9668 20.7958 49.8341 19.8444C48.9049 13.3068 45.2434 7.56568 39.6571 3.87098C37.5664 2.48824 34.5907 1.23824 32.1128 0.696206C29.6571 0.154171 29.4137 0.154171 14.2478 0.143109H0V0.397534ZM38.1637 20.9838C38.8827 21.3599 39.4358 21.902 39.7677 22.5546C40.0553 23.1188 40.0996 23.3289 40.0996 24.0922C40.0885 24.8002 40.0442 25.0878 39.8341 25.4971C39.458 26.2382 38.8717 26.7913 38.0752 27.1674C37.4668 27.4551 37.2898 27.4882 36.5819 27.444C32.8208 27.2559 32.0686 22.1896 35.6084 20.8621C36.1615 20.652 37.6549 20.7294 38.1637 20.9838Z" fill="#272406"/>
<path d="M14.3474 20.3865C13.2965 20.652 12.3341 21.4706 11.8474 22.4882C11.4602 23.3179 11.4381 24.8113 11.8031 25.6077C12.135 26.3489 12.9535 27.1675 13.6947 27.5325C14.5354 27.9418 15.9071 27.975 16.7478 27.5989C17.9204 27.0679 18.6615 26.1829 18.9823 24.9219C19.5575 22.6874 17.8429 20.4307 15.4978 20.3201C15.0996 20.298 14.5797 20.3312 14.3474 20.3865Z" fill="#272406"/>
<path d="M68.616 28.32C65.224 28.32 62.664 27.4027 60.936 25.568C59.2293 23.7333 58.376 21.248 58.376 18.112C58.376 15.8507 58.7493 13.8987 59.496 12.256C60.2427 10.592 61.3733 9.312 62.888 8.416C64.424 7.52 66.3653 7.072 68.712 7.072C69.928 7.072 71.0267 7.15733 72.008 7.328C73.0107 7.47733 73.9493 7.70133 74.824 8V11.008C73.0747 10.368 71.1333 10.048 69 10.048C66.376 10.048 64.5307 10.7413 63.464 12.128C62.4187 13.5147 61.896 15.5093 61.896 18.112C61.896 20.48 62.4507 22.2827 63.56 23.52C64.6693 24.7573 66.3867 25.376 68.712 25.376C70.5467 25.376 72.0293 25.1627 73.16 24.736V18.976H68.008V16.704H76.136V26.624C75.4747 27.0507 74.5253 27.4453 73.288 27.808C72.072 28.1493 70.5147 28.32 68.616 28.32ZM79.516 28V12.832H82.716L82.908 14.592C83.6333 14.1227 84.4973 13.696 85.5 13.312C86.5027 12.928 87.4947 12.6613 88.476 12.512V15.168C87.8787 15.2747 87.228 15.4347 86.524 15.648C85.8413 15.84 85.1907 16.064 84.572 16.32C83.9533 16.5547 83.4307 16.8 83.004 17.056V28H79.516ZM94.7833 28.32C93.8233 28.32 92.9273 28.1493 92.0953 27.808C91.2846 27.4667 90.6339 26.9547 90.1432 26.272C89.6526 25.568 89.4073 24.704 89.4073 23.68C89.4073 22.2293 89.8979 21.0667 90.8793 20.192C91.8819 19.296 93.4179 18.848 95.4873 18.848H100.351V18.176C100.351 17.4507 100.234 16.8747 99.9993 16.448C99.7859 16.0213 99.3806 15.712 98.7833 15.52C98.2073 15.328 97.3539 15.232 96.2233 15.232C94.4313 15.232 92.7566 15.4987 91.1993 16.032V13.44C91.8819 13.1627 92.7139 12.9387 93.6953 12.768C94.6766 12.5973 95.7326 12.512 96.8633 12.512C99.0819 12.512 100.767 12.96 101.919 13.856C103.093 14.752 103.679 16.2133 103.679 18.24V28H100.703L100.479 26.464C99.8606 27.0613 99.0926 27.52 98.1753 27.84C97.2793 28.16 96.1486 28.32 94.7833 28.32ZM95.7113 25.824C96.7566 25.824 97.6633 25.6533 98.4313 25.312C99.2206 24.9493 99.8606 24.4693 100.351 23.872V21.216H95.5513C94.5273 21.216 93.7806 21.4187 93.3113 21.824C92.8633 22.208 92.6393 22.8053 92.6393 23.616C92.6393 24.4053 92.9059 24.9707 93.4393 25.312C93.9726 25.6533 94.7299 25.824 95.7113 25.824ZM107.547 34.912V12.832H110.555L110.747 14.336C111.43 13.7173 112.177 13.2587 112.987 12.96C113.798 12.6613 114.758 12.512 115.867 12.512C118.043 12.512 119.739 13.1093 120.955 14.304C122.171 15.4773 122.779 17.4293 122.779 20.16C122.779 22.8907 122.15 24.9387 120.891 26.304C119.633 27.648 117.915 28.32 115.739 28.32C113.905 28.32 112.337 27.8933 111.035 27.04V34.912H107.547ZM114.843 25.696C117.787 25.696 119.259 23.84 119.259 20.128C119.259 18.336 118.929 17.0667 118.267 16.32C117.606 15.552 116.497 15.168 114.939 15.168C113.382 15.168 112.081 15.7013 111.035 16.768V24.352C111.526 24.7573 112.07 25.088 112.667 25.344C113.286 25.5787 114.011 25.696 114.843 25.696ZM126.172 28V6.432H129.66V14.304C130.322 13.7707 131.111 13.344 132.028 13.024C132.946 12.6827 133.98 12.512 135.132 12.512C137.052 12.512 138.471 12.9707 139.388 13.888C140.306 14.8053 140.764 16.2347 140.764 18.176V28H137.308V18.336C137.308 17.1627 137.052 16.3413 136.54 15.872C136.05 15.4027 135.186 15.168 133.948 15.168C133.18 15.168 132.402 15.3387 131.612 15.68C130.823 16 130.172 16.4267 129.66 16.96V28H126.172ZM145.952 9.664V6.784H149.76V9.664H145.952ZM146.24 28V15.488H143.936L144.256 12.832H149.728V28H146.24ZM161.253 28.32C158.587 28.32 156.571 27.648 155.205 26.304C153.84 24.9387 153.157 22.976 153.157 20.416C153.157 17.7493 153.904 15.7653 155.397 14.464C156.912 13.1627 158.928 12.512 161.445 12.512C162.491 12.512 163.365 12.5867 164.069 12.736C164.795 12.8853 165.488 13.12 166.149 13.44V16.032C165.04 15.4773 163.696 15.2 162.117 15.2C160.368 15.2 159.024 15.5947 158.085 16.384C157.147 17.152 156.677 18.496 156.677 20.416C156.677 22.2293 157.093 23.5627 157.925 24.416C158.757 25.248 160.133 25.664 162.053 25.664C163.568 25.664 164.944 25.376 166.181 24.8V27.456C165.477 27.7333 164.72 27.9467 163.909 28.096C163.12 28.2453 162.235 28.32 161.253 28.32Z" fill="#272406"/>
<path d="M68.68 52.32C65.288 52.32 62.7173 51.392 60.968 49.536C59.24 47.68 58.376 45.1733 58.376 42.016C58.376 39.7547 58.7387 37.8133 59.464 36.192C60.2107 34.5493 61.3413 33.2907 62.856 32.416C64.3707 31.52 66.3013 31.072 68.648 31.072C69.8427 31.072 70.9307 31.168 71.912 31.36C72.9147 31.5307 73.8427 31.7653 74.696 32.064V35.104C73.8427 34.7627 72.9253 34.5067 71.944 34.336C70.984 34.144 69.9707 34.048 68.904 34.048C66.344 34.048 64.5307 34.7307 63.464 36.096C62.4187 37.4613 61.896 39.4347 61.896 42.016C61.896 44.4267 62.472 46.2613 63.624 47.52C64.776 48.7573 66.5573 49.376 68.968 49.376C69.9493 49.376 70.9307 49.3013 71.912 49.152C72.9147 48.9813 73.8533 48.7253 74.728 48.384V51.456C73.8747 51.7333 72.9467 51.9467 71.944 52.096C70.9627 52.2453 69.8747 52.32 68.68 52.32ZM82.8458 52.32C81.8858 52.32 80.9898 52.1493 80.1578 51.808C79.3471 51.4667 78.6964 50.9547 78.2057 50.272C77.7151 49.568 77.4698 48.704 77.4698 47.68C77.4698 46.2293 77.9604 45.0667 78.9418 44.192C79.9444 43.296 81.4804 42.848 83.5498 42.848H88.4138V42.176C88.4138 41.4507 88.2964 40.8747 88.0618 40.448C87.8484 40.0213 87.4431 39.712 86.8458 39.52C86.2698 39.328 85.4164 39.232 84.2858 39.232C82.4938 39.232 80.8191 39.4987 79.2618 40.032V37.44C79.9444 37.1627 80.7764 36.9387 81.7578 36.768C82.7391 36.5973 83.7951 36.512 84.9258 36.512C87.1444 36.512 88.8298 36.96 89.9818 37.856C91.1551 38.752 91.7418 40.2133 91.7418 42.24V52H88.7658L88.5418 50.464C87.9231 51.0613 87.1551 51.52 86.2378 51.84C85.3418 52.16 84.2111 52.32 82.8458 52.32ZM83.7738 49.824C84.8191 49.824 85.7258 49.6533 86.4938 49.312C87.2831 48.9493 87.9231 48.4693 88.4138 47.872V45.216H83.6138C82.5898 45.216 81.8431 45.4187 81.3738 45.824C80.9258 46.208 80.7018 46.8053 80.7018 47.616C80.7018 48.4053 80.9684 48.9707 81.5018 49.312C82.0351 49.6533 82.7924 49.824 83.7738 49.824ZM101.402 52.32C99.7804 52.32 98.5644 51.8933 97.7538 51.04C96.9644 50.1653 96.5698 48.9813 96.5698 47.488V39.552H94.3298V36.832H96.5698V33.344L100.026 32.288V36.832H104.058L103.834 39.552H100.026V47.296C100.026 48.1707 100.228 48.7893 100.634 49.152C101.039 49.4933 101.7 49.664 102.618 49.664C103.194 49.664 103.802 49.5573 104.442 49.344V51.808C103.61 52.1493 102.596 52.32 101.402 52.32ZM111.846 52.32C110.886 52.32 109.99 52.1493 109.158 51.808C108.347 51.4667 107.696 50.9547 107.206 50.272C106.715 49.568 106.47 48.704 106.47 47.68C106.47 46.2293 106.96 45.0667 107.942 44.192C108.944 43.296 110.48 42.848 112.55 42.848H117.414V42.176C117.414 41.4507 117.296 40.8747 117.062 40.448C116.848 40.0213 116.443 39.712 115.846 39.52C115.27 39.328 114.416 39.232 113.286 39.232C111.494 39.232 109.819 39.4987 108.262 40.032V37.44C108.944 37.1627 109.776 36.9387 110.758 36.768C111.739 36.5973 112.795 36.512 113.926 36.512C116.144 36.512 117.83 36.96 118.982 37.856C120.155 38.752 120.742 40.2133 120.742 42.24V52H117.766L117.542 50.464C116.923 51.0613 116.155 51.52 115.238 51.84C114.342 52.16 113.211 52.32 111.846 52.32ZM112.774 49.824C113.819 49.824 114.726 49.6533 115.494 49.312C116.283 48.9493 116.923 48.4693 117.414 47.872V45.216H112.614C111.59 45.216 110.843 45.4187 110.374 45.824C109.926 46.208 109.702 46.8053 109.702 47.616C109.702 48.4053 109.968 48.9707 110.502 49.312C111.035 49.6533 111.792 49.824 112.774 49.824ZM128.386 52.32C127.148 52.32 126.21 52.0213 125.57 51.424C124.93 50.8053 124.61 49.792 124.61 48.384V30.432H128.098V48.064C128.098 48.6613 128.204 49.0667 128.418 49.28C128.631 49.4933 128.951 49.6 129.378 49.6C129.89 49.6 130.38 49.536 130.85 49.408V51.936C130.444 52.0853 130.05 52.1813 129.666 52.224C129.303 52.288 128.876 52.32 128.386 52.32ZM140.843 52.32C138.112 52.32 136.107 51.6373 134.827 50.272C133.568 48.9067 132.939 46.9547 132.939 44.416C132.939 41.8773 133.579 39.9253 134.859 38.56C136.139 37.1947 138.133 36.512 140.843 36.512C143.573 36.512 145.579 37.1947 146.859 38.56C148.139 39.9253 148.779 41.8773 148.779 44.416C148.779 46.9547 148.139 48.9067 146.859 50.272C145.6 51.6373 143.595 52.32 140.843 52.32ZM140.843 49.376C142.443 49.376 143.573 48.992 144.235 48.224C144.917 47.4347 145.259 46.1653 145.259 44.416C145.259 42.6667 144.917 41.408 144.235 40.64C143.573 39.872 142.443 39.488 140.843 39.488C139.264 39.488 138.133 39.872 137.451 40.64C136.789 41.408 136.459 42.6667 136.459 44.416C136.459 46.1653 136.789 47.4347 137.451 48.224C138.133 48.992 139.264 49.376 140.843 49.376ZM158.316 57.632C157.186 57.632 156.055 57.5573 154.924 57.408C153.794 57.28 152.834 57.0773 152.044 56.8V54.112C152.898 54.3893 153.879 54.6027 154.988 54.752C156.098 54.9013 157.154 54.976 158.156 54.976C159.692 54.976 160.812 54.8907 161.516 54.72C162.22 54.5493 162.572 54.1653 162.572 53.568C162.572 53.12 162.402 52.8 162.06 52.608C161.719 52.4373 161.068 52.352 160.108 52.352H156.012C153.26 52.352 151.884 51.3813 151.884 49.44C151.884 48.8213 152.066 48.2453 152.428 47.712C152.791 47.1787 153.367 46.7733 154.156 46.496C153.282 46.0693 152.631 45.4827 152.204 44.736C151.799 43.9893 151.596 43.0933 151.596 42.048C151.596 40.1067 152.172 38.6987 153.324 37.824C154.498 36.9493 156.247 36.512 158.572 36.512C159.063 36.512 159.575 36.5547 160.108 36.64C160.642 36.704 161.058 36.768 161.356 36.832H166.924L166.828 39.104H164.268C164.674 39.4453 164.972 39.872 165.164 40.384C165.356 40.896 165.452 41.4507 165.452 42.048C165.452 43.6693 164.962 44.9493 163.98 45.888C162.999 46.8053 161.516 47.264 159.532 47.264C159.191 47.264 158.871 47.2533 158.572 47.232C158.295 47.1893 157.986 47.1467 157.644 47.104C157.004 47.168 156.428 47.3387 155.916 47.616C155.404 47.8933 155.148 48.2667 155.148 48.736C155.148 49.056 155.276 49.2907 155.532 49.44C155.788 49.568 156.215 49.632 156.812 49.632H161.068C162.583 49.632 163.746 49.9627 164.556 50.624C165.388 51.264 165.804 52.2027 165.804 53.44C165.804 54.9333 165.154 56 163.852 56.64C162.572 57.3013 160.727 57.632 158.316 57.632ZM158.572 45.056C159.959 45.056 160.919 44.8213 161.452 44.352C162.007 43.8827 162.284 43.0827 162.284 41.952C162.284 40.8213 162.007 40 161.452 39.488C160.919 38.976 159.959 38.72 158.572 38.72C157.271 38.72 156.322 38.9653 155.724 39.456C155.127 39.9467 154.828 40.7787 154.828 41.952C154.828 43.04 155.106 43.8293 155.66 44.32C156.236 44.8107 157.207 45.056 158.572 45.056ZM175.363 52.32C173.55 52.32 172.152 51.8187 171.171 50.816C170.211 49.8133 169.731 48.3413 169.731 46.4V36.832H173.219V46.4C173.219 47.5307 173.496 48.3627 174.051 48.896C174.606 49.4293 175.459 49.696 176.611 49.696C177.464 49.696 178.254 49.536 178.979 49.216C179.704 48.896 180.334 48.4693 180.867 47.936V36.832H184.323V52H181.155L180.995 50.432C180.312 50.9653 179.502 51.4133 178.563 51.776C177.624 52.1387 176.558 52.32 175.363 52.32ZM196.071 52.32C193.426 52.32 191.378 51.6693 189.927 50.368C188.476 49.0667 187.751 47.072 187.751 44.384C187.751 41.952 188.37 40.032 189.607 38.624C190.844 37.216 192.722 36.512 195.239 36.512C197.543 36.512 199.271 37.12 200.423 38.336C201.596 39.5307 202.183 41.0773 202.183 42.976V45.792H191.079C191.25 47.264 191.783 48.2773 192.679 48.832C193.575 49.3867 194.94 49.664 196.775 49.664C197.543 49.664 198.332 49.5893 199.143 49.44C199.954 49.2907 200.658 49.0987 201.255 48.864V51.424C200.572 51.7227 199.783 51.9467 198.887 52.096C198.012 52.2453 197.074 52.32 196.071 52.32ZM191.079 43.52H199.111V42.464C199.111 41.4187 198.823 40.608 198.247 40.032C197.671 39.4347 196.7 39.136 195.335 39.136C193.714 39.136 192.594 39.488 191.975 40.192C191.378 40.896 191.079 42.0053 191.079 43.52Z" fill="#272406"/>
</svg>
