<svg width="50" height="58" viewBox="0 0 50 58" fill="none" xmlns="http://www.w3.org/2000/svg">
<path d="M0 0.397534C0 0.851073 0.564159 4.61214 0.730088 5.28691C1.59292 8.73824 4.26991 11.7582 7.63274 13.0635C9.29204 13.7051 9.7677 13.7714 13.6615 13.8599C18.208 13.9595 18.927 14.1033 20.885 15.2869C22.6327 16.3378 23.9602 17.798 24.8451 19.6674C26.0177 22.1343 26.1062 25.132 25.0664 27.632C24.9226 27.9971 23.3518 31.382 21.5819 35.1542C19.8119 38.9263 18.3628 42.0458 18.3628 42.09C18.3628 42.1343 21.1173 42.1896 24.4801 42.2006L30.5863 42.2338L30.6195 49.7891C30.6305 54.0701 30.6858 57.3334 30.7412 57.3334C30.8186 57.3334 38.6394 51.9241 42.5885 49.1475C43.7721 48.3179 46.9137 46.1276 48.385 45.1099L49.9889 44.0037L50 32.4993C50 22.9418 49.9668 20.7958 49.8341 19.8444C48.9049 13.3068 45.2434 7.56568 39.6571 3.87098C37.5664 2.48824 34.5907 1.23824 32.1128 0.696206C29.6571 0.154171 29.4137 0.154171 14.2478 0.143109H0V0.397534ZM38.1637 20.9838C38.8827 21.3599 39.4358 21.902 39.7677 22.5546C40.0553 23.1188 40.0996 23.3289 40.0996 24.0922C40.0885 24.8002 40.0442 25.0878 39.8341 25.4971C39.458 26.2382 38.8717 26.7913 38.0752 27.1674C37.4668 27.4551 37.2898 27.4882 36.5819 27.444C32.8208 27.2559 32.0686 22.1896 35.6084 20.8621C36.1615 20.652 37.6549 20.7294 38.1637 20.9838Z" fill="#43D686"/>
<path d="M14.3474 20.3865C13.2965 20.652 12.3341 21.4706 11.8474 22.4882C11.4602 23.3179 11.4381 24.8113 11.8031 25.6077C12.135 26.3489 12.9535 27.1675 13.6947 27.5325C14.5354 27.9418 15.9071 27.975 16.7478 27.5989C17.9204 27.0679 18.6615 26.1829 18.9823 24.9219C19.5575 22.6874 17.8429 20.4307 15.4978 20.3201C15.0996 20.298 14.5797 20.3312 14.3474 20.3865Z" fill="#43D686"/>
</svg>
